# xmcd
#
# Track frame offsets: 
#        150
#        17164
#        33112
#        51808
#        73538
#        91287
#        111432
#        127624
#        151252
#        174653
#        197940
#
# Disc length: 2934 seconds
#
# Revision: 0
# Processed by: cddbd v1.5.1PL0 Copyright (c) Steve Scherf et al.
# Submitted via: ExactAudioCopy v0.95a3
#
DISCID=890b740b
DTITLE=Chris Cagle - Chris Cagle
DYEAR=2003
DGENRE=Country
TTITLE0=What A Beautiful Day
TTITLE1=Chicks Dig It
TTITLE2=Look What I Found
TTITLE3=I Love It When She Does That
TTITLE4=Night On The Country
TTITLE5=I'd Be Lying
TTITLE6=Everything
TTITLE7=It Takes Two
TTITLE8=Growin' Love
TTITLE9=Just Love Me
TTITLE10=Look At What I've Done
EXTD=
EXTT0=
EXTT1=
EXTT2=
EXTT3=
EXTT4=
EXTT5=
EXTT6=
EXTT7=
EXTT8=
EXTT9=
EXTT10=
PLAYORDER=
